<?xml version="1.0" encoding="UTF-8" standalone="no"?>
<!-- Created with Inkscape (http://www.inkscape.org/) -->

<svg
   xmlns:osb="http://www.openswatchbook.org/uri/2009/osb"
   xmlns:dc="http://purl.org/dc/elements/1.1/"
   xmlns:cc="http://creativecommons.org/ns#"
   xmlns:rdf="http://www.w3.org/1999/02/22-rdf-syntax-ns#"
   xmlns:svg="http://www.w3.org/2000/svg"
   xmlns="http://www.w3.org/2000/svg"
   xmlns:xlink="http://www.w3.org/1999/xlink"
   xmlns:sodipodi="http://sodipodi.sourceforge.net/DTD/sodipodi-0.dtd"
   xmlns:inkscape="http://www.inkscape.org/namespaces/inkscape"
   width="744.09448819"
   height="1052.3622047"
   id="svg2"
   version="1.1"
   inkscape:version="0.48.2 r9819"
   sodipodi:docname="Arrows.svg">
  <defs
     id="defs4">
    <linearGradient
       id="linearGradient5585"
       osb:paint="solid">
      <stop
         style="stop-color:#110286;stop-opacity:1;"
         offset="0"
         id="stop5587" />
    </linearGradient>
    <linearGradient
       id="linearGradient4037">
      <stop
         style="stop-color:#d5fbd9;stop-opacity:1;"
         offset="0"
         id="stop4039" />
      <stop
         style="stop-color:#3cec4f;stop-opacity:1;"
         offset="1"
         id="stop4041" />
    </linearGradient>
    <linearGradient
       inkscape:collect="always"
       xlink:href="#linearGradient4037"
       id="linearGradient5589"
       x1="95"
       y1="127.36218"
       x2="125"
       y2="162.36218"
       gradientUnits="userSpaceOnUse"
       spreadMethod="pad"
       gradientTransform="matrix(10,0,0,9.9999999,-689.99999,-1351.2596)" />
    <linearGradient
       inkscape:collect="always"
       xlink:href="#linearGradient4037"
       id="linearGradient5591"
       x1="95"
       y1="212.36218"
       x2="125"
       y2="247.36218"
       gradientUnits="userSpaceOnUse"
       spreadMethod="pad"
       gradientTransform="matrix(10,0,0,9.9999999,-689.99999,-1351.2596)" />
    <linearGradient
       inkscape:collect="always"
       xlink:href="#linearGradient4037"
       id="linearGradient5593"
       x1="50"
       y1="172.36218"
       x2="85"
       y2="202.36218"
       gradientUnits="userSpaceOnUse"
       spreadMethod="pad"
       gradientTransform="matrix(10,0,0,9.9999999,-689.99999,-1351.2596)" />
    <linearGradient
       inkscape:collect="always"
       xlink:href="#linearGradient4037"
       id="linearGradient5595"
       x1="135"
       y1="172.36218"
       x2="170"
       y2="202.36218"
       gradientUnits="userSpaceOnUse"
       spreadMethod="pad"
       gradientTransform="matrix(10,0,0,9.9999999,-689.99999,-1351.2596)" />
    <linearGradient
       inkscape:collect="always"
       xlink:href="#linearGradient4037"
       id="linearGradient5597"
       x1="100"
       y1="177.36218"
       x2="120"
       y2="197.36218"
       gradientUnits="userSpaceOnUse"
       spreadMethod="pad" />
    <linearGradient
       inkscape:collect="always"
       xlink:href="#linearGradient4037"
       id="linearGradient5599"
       x1="135"
       y1="127.36218"
       x2="170"
       y2="162.36218"
       gradientUnits="userSpaceOnUse"
       spreadMethod="pad"
       gradientTransform="matrix(10,0,0,9.9999999,-689.99999,-1351.2596)" />
    <linearGradient
       inkscape:collect="always"
       xlink:href="#linearGradient4037"
       id="linearGradient5601"
       x1="50"
       y1="127.36218"
       x2="85"
       y2="162.36218"
       gradientUnits="userSpaceOnUse"
       spreadMethod="pad"
       gradientTransform="matrix(10,0,0,9.9999999,-689.99999,-1351.2596)" />
    <linearGradient
       inkscape:collect="always"
       xlink:href="#linearGradient4037"
       id="linearGradient5603"
       x1="135"
       y1="212.36218"
       x2="170"
       y2="247.36218"
       gradientUnits="userSpaceOnUse"
       spreadMethod="pad"
       gradientTransform="matrix(10,0,0,9.9999999,-689.99999,-1351.2596)" />
    <linearGradient
       inkscape:collect="always"
       xlink:href="#linearGradient4037"
       id="linearGradient5605"
       x1="50"
       y1="212.36218"
       x2="85"
       y2="247.36218"
       gradientUnits="userSpaceOnUse"
       spreadMethod="pad"
       gradientTransform="matrix(10,0,0,9.9999999,-689.99999,-1351.2596)" />
  </defs>
  <sodipodi:namedview
     id="base"
     pagecolor="#ffffff"
     bordercolor="#666666"
     borderopacity="1.0"
     inkscape:pageopacity="0.0"
     inkscape:pageshadow="2"
     inkscape:zoom="0.20148958"
     inkscape:cx="942.71712"
     inkscape:cy="948.39284"
     inkscape:document-units="px"
     inkscape:current-layer="layer1"
     showgrid="true"
     inkscape:window-width="1366"
     inkscape:window-height="706"
     inkscape:window-x="-8"
     inkscape:window-y="-8"
     inkscape:window-maximized="1">
    <inkscape:grid
       type="xygrid"
       id="grid2985" />
  </sodipodi:namedview>
  <metadata
     id="metadata7">
    <rdf:RDF>
      <cc:Work
         rdf:about="">
        <dc:format>image/svg+xml</dc:format>
        <dc:type
           rdf:resource="http://purl.org/dc/dcmitype/StillImage" />
        <dc:title></dc:title>
      </cc:Work>
    </rdf:RDF>
  </metadata>
  <g
     inkscape:label="Layer 1"
     inkscape:groupmode="layer"
     id="layer1">
    <path
       style="color:#000000;fill:url(#linearGradient5589);fill-opacity:1;fill-rule:nonzero;stroke:#000000;stroke-width:10;stroke-linecap:round;stroke-linejoin:round;stroke-miterlimit:4.55555534;stroke-opacity:1;stroke-dasharray:none;stroke-dashoffset:0;marker:none;visibility:visible;display:inline;overflow:visible;enable-background:accumulate"
       d="m 410,-77.509617 -150,149.99997 100,0 0,200.000037 100,0 0,-200.000037 100,0 -150,-149.99997 z"
       id="path3959"
       inkscape:connector-curvature="0" />
    <path
       style="color:#000000;fill:url(#linearGradient5591);fill-opacity:1;fill-rule:nonzero;stroke:#000000;stroke-width:10;stroke-linecap:round;stroke-linejoin:round;stroke-miterlimit:4.55555534;stroke-opacity:1;stroke-dasharray:none;stroke-dashoffset:0;marker:none;visibility:visible;display:inline;overflow:visible;enable-background:accumulate"
       d="m 560,972.36222 -100,0 0,-200.00004 -100,0 0,200.00004 -100,0 150,149.99998 z"
       id="path2999-1"
       inkscape:connector-curvature="0" />
    <path
       style="color:#000000;fill:url(#linearGradient5593);fill-opacity:1;fill-rule:nonzero;stroke:#000000;stroke-width:10;stroke-linecap:round;stroke-linejoin:round;stroke-miterlimit:4.55555534;stroke-opacity:1;stroke-dasharray:none;stroke-dashoffset:0;marker:none;visibility:visible;display:inline;overflow:visible;enable-background:accumulate"
       d="m -40,672.36216 0,-100.00001 200,0 0,-99.99992 -200,0 0,-100.00002 -150,149.99998 z"
       id="path2999-1-7"
       inkscape:connector-curvature="0" />
    <path
       style="color:#000000;fill:url(#linearGradient5595);fill-opacity:1;fill-rule:nonzero;stroke:#000000;stroke-width:10;stroke-linecap:round;stroke-linejoin:round;stroke-miterlimit:4.55555534;stroke-opacity:1;stroke-dasharray:none;stroke-dashoffset:0;marker:none;visibility:visible;display:inline;overflow:visible;enable-background:accumulate"
       d="m 860,672.36216 0,-100.00001 -200,0 0,-99.99992 200,0 0,-100.00002 150,149.99998 z"
       id="path2999-1-7-4"
       inkscape:connector-curvature="0" />
    <path
       sodipodi:type="arc"
       style="fill:url(#linearGradient5597);fill-opacity:1;stroke:#000000;stroke-width:0.66666669;stroke-linecap:round;stroke-linejoin:round;stroke-miterlimit:4.55555534;stroke-opacity:1;stroke-dasharray:none;stroke-dashoffset:0"
       id="path3101"
       sodipodi:cx="110"
       sodipodi:cy="187.36218"
       sodipodi:rx="10"
       sodipodi:ry="10"
       d="m 120,187.36218 a 10,10 0 1 1 -20,0 10,10 0 1 1 20,0 z"
       transform="matrix(15,0,0,15.000001,-1240,-2288.0706)" />
    <path
       style="fill:url(#linearGradient5599);fill-opacity:1;stroke:#000000;stroke-width:10;stroke-linecap:round;stroke-linejoin:round;stroke-miterlimit:4.55555534;stroke-opacity:1;stroke-dasharray:none;stroke-dashoffset:0"
       d="m 860,-77.509617 0,100.00001 c -3.4518,0 -6.9037,-0.17309 -10.3125,0 C 744.0135,27.846953 660,115.48522 660,222.49043 l 0,49.99996 100,0 0,-49.99996 c 0,-55.22842 44.7716,-100.00002 100,-100.00002 l 0,100.00002 150,-150.000077 -150,-149.99997 z"
       id="path3975"
       inkscape:connector-curvature="0" />
    <path
       inkscape:connector-curvature="0"
       style="fill:url(#linearGradient5601);fill-opacity:1;stroke:#000000;stroke-width:10;stroke-linecap:round;stroke-linejoin:round;stroke-miterlimit:4.55555534;stroke-opacity:1;stroke-dasharray:none;stroke-dashoffset:0"
       d="m -40,-77.637807 0,100.00002 c 3.4518,0 6.9037,-0.1731 10.3125,0 C 75.9865,27.718763 160,115.35703 160,222.36214 l 0,50.00006 -100,0 0,-50.00006 C 60,167.13382 15.2284,122.36222 -40,122.36222 l 0,99.99992 -150,-149.999977 150,-149.99997 z"
       id="path3975-2" />
    <path
       inkscape:connector-curvature="0"
       style="fill:url(#linearGradient5603);fill-opacity:1;stroke:#000000;stroke-width:10;stroke-linecap:round;stroke-linejoin:round;stroke-miterlimit:4.55555534;stroke-opacity:1;stroke-dasharray:none;stroke-dashoffset:0"
       d="m 860,1122.3622 0,-100 c -3.4518,0 -6.9037,0.1731 -10.3125,0 C 744.0135,1017.0056 660,929.36735 660,822.36224 l 0,-50.00006 100,0 0,50.00006 c 0,55.22832 44.7716,99.99992 100,99.99992 l 0,-99.99992 150,149.99998 -150,149.99998 z"
       id="path3975-4" />
    <path
       inkscape:connector-curvature="0"
       style="fill:url(#linearGradient5605);fill-opacity:1;stroke:#000000;stroke-width:10;stroke-linecap:round;stroke-linejoin:round;stroke-miterlimit:4.55555534;stroke-opacity:1;stroke-dasharray:none;stroke-dashoffset:0"
       d="m -40,1122.3622 0,-100 c 3.4518,0 6.9037,0.1731 10.3125,0 C 75.9865,1017.0056 160,929.36735 160,822.36224 l 0,-50.00006 -100,0 0,50.00006 c 0,55.22832 -44.7716,99.99992 -100,99.99992 l 0,-99.99992 -150,149.99998 150,149.99998 z"
       id="path3975-4-5" />
  </g>
</svg>
