<?xml version="1.0" encoding="UTF-8" standalone="no"?>
<!-- Created with Inkscape (http://www.inkscape.org/) -->

<svg
   xmlns:dc="http://purl.org/dc/elements/1.1/"
   xmlns:cc="http://creativecommons.org/ns#"
   xmlns:rdf="http://www.w3.org/1999/02/22-rdf-syntax-ns#"
   xmlns:svg="http://www.w3.org/2000/svg"
   xmlns="http://www.w3.org/2000/svg"
   xmlns:xlink="http://www.w3.org/1999/xlink"
   xmlns:sodipodi="http://sodipodi.sourceforge.net/DTD/sodipodi-0.dtd"
   xmlns:inkscape="http://www.inkscape.org/namespaces/inkscape"
   width="744.09448819"
   height="1052.3622047"
   id="svg2"
   version="1.1"
   inkscape:version="0.48.2 r9819"
   inkscape:export-filename="brick2.png"
   inkscape:export-xdpi="162"
   inkscape:export-ydpi="162"
   sodipodi:docname="New document 1">
  <defs
     id="defs4">
    <linearGradient
       id="linearGradient3905">
      <stop
         style="stop-color:#ff961b;stop-opacity:1;"
         offset="0"
         id="stop3907" />
      <stop
         style="stop-color:#ff8a00;stop-opacity:1;"
         offset="1"
         id="stop3909" />
    </linearGradient>
    <linearGradient
       inkscape:collect="always"
       xlink:href="#linearGradient3905"
       id="linearGradient3911"
       x1="210"
       y1="477.36218"
       x2="220"
       y2="467.36218"
       gradientUnits="userSpaceOnUse" />
  </defs>
  <sodipodi:namedview
     id="base"
     pagecolor="#ffffff"
     bordercolor="#666666"
     borderopacity="1.0"
     inkscape:pageopacity="0.0"
     inkscape:pageshadow="2"
     inkscape:zoom="4.2969961"
     inkscape:cx="285.65061"
     inkscape:cy="597.95192"
     inkscape:document-units="px"
     inkscape:current-layer="layer1"
     showgrid="false"
     inkscape:snap-global="true"
     inkscape:snap-bbox="true"
     inkscape:object-paths="false"
     inkscape:snap-smooth-nodes="true"
     inkscape:window-width="1366"
     inkscape:window-height="706"
     inkscape:window-x="-8"
     inkscape:window-y="-8"
     inkscape:window-maximized="1">
    <inkscape:grid
       type="xygrid"
       id="grid2985" />
  </sodipodi:namedview>
  <metadata
     id="metadata7">
    <rdf:RDF>
      <cc:Work
         rdf:about="">
        <dc:format>image/svg+xml</dc:format>
        <dc:type
           rdf:resource="http://purl.org/dc/dcmitype/StillImage" />
        <dc:title></dc:title>
      </cc:Work>
    </rdf:RDF>
  </metadata>
  <g
     inkscape:label="Layer 1"
     inkscape:groupmode="layer"
     id="layer1">
    <path
       style="fill:#ff961b;fill-opacity:1;stroke:none;stroke-width:0.40000001000000002;stroke-linecap:round;stroke-linejoin:round;stroke-miterlimit:4;stroke-opacity:1;stroke-dashoffset:0"
       d="m 205,487.36218 65,0 0,-65 5,0 5,5 0,70 -70,0 -5,-5 z"
       id="rect4112"
       inkscape:connector-curvature="0"
       sodipodi:nodetypes="ccccccccc"
       inkscape:export-filename="C:\Users\Philip\Dropbox\LEGO\pynxt\Cherry\static\root\favicon.png"
       inkscape:export-xdpi="18"
       inkscape:export-ydpi="18" />
    <rect
       style="fill:#ff8a00;fill-opacity:1;stroke:none"
       id="rect4115"
       width="10"
       height="10"
       x="275"
       y="492.36218"
       inkscape:export-filename="C:\Users\Philip\Dropbox\LEGO\pynxt\Cherry\static\root\favicon.png"
       inkscape:export-xdpi="18"
       inkscape:export-ydpi="18" />
    <rect
       y="422.36218"
       x="205"
       height="70"
       width="70"
       id="rect3814"
       style="fill:#ff961b;fill-opacity:1;stroke:none"
       inkscape:export-filename="C:\Users\Philip\Dropbox\LEGO\pynxt\Cherry\static\root\favicon.png"
       inkscape:export-xdpi="18"
       inkscape:export-ydpi="18" />
    <path
       style="fill:#ff8a00;fill-opacity:1;stroke:none"
       d="m 275,422.36218 10,10 0,70 -10,-10 z"
       id="rect3759"
       inkscape:connector-curvature="0"
       sodipodi:nodetypes="ccccc"
       inkscape:export-filename="C:\Users\Philip\Dropbox\LEGO\pynxt\Cherry\static\root\favicon.png"
       inkscape:export-xdpi="18"
       inkscape:export-ydpi="18" />
    <path
       style="fill:#e77c00;fill-opacity:1;stroke:none"
       d="m 205,492.36218 10,10 70,0 -10,-10 z"
       id="rect3759-1"
       inkscape:connector-curvature="0"
       sodipodi:nodetypes="ccccc"
       inkscape:export-filename="C:\Users\Philip\Dropbox\LEGO\pynxt\Cherry\static\root\favicon.png"
       inkscape:export-xdpi="18"
       inkscape:export-ydpi="18" />
    <path
       style="fill:#e77c00;fill-opacity:1;stroke:#894900;stroke-width:0.20000000000000001;stroke-linecap:round;stroke-linejoin:round;stroke-miterlimit:4;stroke-opacity:1;stroke-dasharray:none;stroke-dashoffset:0"
       d="m 216.30474,433.66692 c -1.80663,1.80661 -2.91683,4.30964 -2.91683,7.07106 1e-5,2.76143 1.12928,5.28353 2.93892,7.09316 l 1.41421,1.41422 c 1.80964,1.80964 4.30965,2.91681 7.07108,2.91682 5.52284,0 9.98788,-4.46504 9.98788,-9.98788 -1e-5,-2.76143 -1.10718,-5.26144 -2.91682,-7.07108 l -1.41422,-1.41421 c -1.80963,-1.80964 -4.33173,-2.93891 -7.09316,-2.93892 -2.76142,0 -5.26445,1.1102 -7.07106,2.91683 z"
       id="path4027"
       inkscape:connector-curvature="0"
       inkscape:export-filename="C:\Users\Philip\Dropbox\LEGO\pynxt\Cherry\static\root\favicon.png"
       inkscape:export-xdpi="18"
       inkscape:export-ydpi="18" />
    <path
       sodipodi:type="arc"
       style="fill:#ff961b;fill-opacity:1;stroke:#894900;stroke-width:0.2;stroke-linecap:round;stroke-linejoin:round;stroke-miterlimit:4;stroke-opacity:1;stroke-dasharray:none;stroke-dashoffset:0"
       id="path4034"
       sodipodi:cx="365"
       sodipodi:cy="442.36218"
       sodipodi:rx="10"
       sodipodi:ry="10"
       d="m 375,442.36218 a 10,10 0 1 1 -20,0 10,10 0 1 1 20,0 z"
       transform="translate(-141.6242,-1.61209)"
       inkscape:export-filename="C:\Users\Philip\Dropbox\LEGO\pynxt\Cherry\static\root\favicon.png"
       inkscape:export-xdpi="18"
       inkscape:export-ydpi="18" />
    <path
       style="fill:#e77c00;fill-opacity:1;stroke:#894900;stroke-width:0.20000000000000001;stroke-linecap:round;stroke-linejoin:round;stroke-miterlimit:4;stroke-opacity:1;stroke-dasharray:none;stroke-dashoffset:0"
       d="m 246.30474,433.66692 c -1.80663,1.80661 -2.91683,4.30964 -2.91683,7.07106 1e-5,2.76143 1.12928,5.28353 2.93892,7.09316 l 1.41421,1.41422 c 1.80964,1.80964 4.30965,2.91681 7.07108,2.91682 5.52284,0 9.98788,-4.46504 9.98788,-9.98788 -1e-5,-2.76143 -1.10718,-5.26144 -2.91682,-7.07108 l -1.41422,-1.41421 c -1.80963,-1.80964 -4.33173,-2.93891 -7.09316,-2.93892 -2.76142,0 -5.26445,1.1102 -7.07106,2.91683 z"
       id="path4027-2"
       inkscape:connector-curvature="0"
       inkscape:export-filename="C:\Users\Philip\Dropbox\LEGO\pynxt\Cherry\static\root\favicon.png"
       inkscape:export-xdpi="18"
       inkscape:export-ydpi="18" />
    <path
       sodipodi:type="arc"
       style="fill:#ff961b;fill-opacity:1;stroke:#894900;stroke-width:0.2;stroke-linecap:round;stroke-linejoin:round;stroke-miterlimit:4;stroke-opacity:1;stroke-dasharray:none;stroke-dashoffset:0"
       id="path4034-6"
       sodipodi:cx="365"
       sodipodi:cy="442.36218"
       sodipodi:rx="10"
       sodipodi:ry="10"
       d="m 375,442.36218 a 10,10 0 1 1 -20,0 10,10 0 1 1 20,0 z"
       transform="translate(-111.6242,-1.61209)"
       inkscape:export-filename="C:\Users\Philip\Dropbox\LEGO\pynxt\Cherry\static\root\favicon.png"
       inkscape:export-xdpi="18"
       inkscape:export-ydpi="18" />
    <path
       style="fill:#e77c00;fill-opacity:1;stroke:#894900;stroke-width:0.20000000000000001;stroke-linecap:round;stroke-linejoin:round;stroke-miterlimit:4;stroke-opacity:1;stroke-dasharray:none;stroke-dashoffset:0"
       d="m 246.30474,463.66692 c -1.80663,1.80661 -2.91683,4.30964 -2.91683,7.07106 1e-5,2.76143 1.12928,5.28353 2.93892,7.09316 l 1.41421,1.41422 c 1.80964,1.80964 4.30965,2.91681 7.07108,2.91682 5.52284,0 9.98788,-4.46504 9.98788,-9.98788 -1e-5,-2.76143 -1.10718,-5.26144 -2.91682,-7.07108 l -1.41422,-1.41421 c -1.80963,-1.80964 -4.33173,-2.93891 -7.09316,-2.93892 -2.76142,0 -5.26445,1.1102 -7.07106,2.91683 z"
       id="path4027-2-4"
       inkscape:connector-curvature="0"
       inkscape:export-filename="C:\Users\Philip\Dropbox\LEGO\pynxt\Cherry\static\root\favicon.png"
       inkscape:export-xdpi="18"
       inkscape:export-ydpi="18" />
    <path
       sodipodi:type="arc"
       style="fill:#ff961b;fill-opacity:1;stroke:#894900;stroke-width:0.2;stroke-linecap:round;stroke-linejoin:round;stroke-miterlimit:4;stroke-opacity:1;stroke-dasharray:none;stroke-dashoffset:0"
       id="path4034-6-9"
       sodipodi:cx="365"
       sodipodi:cy="442.36218"
       sodipodi:rx="10"
       sodipodi:ry="10"
       d="m 375,442.36218 a 10,10 0 1 1 -20,0 10,10 0 1 1 20,0 z"
       transform="translate(-111.6242,28.38791)"
       inkscape:export-filename="C:\Users\Philip\Dropbox\LEGO\pynxt\Cherry\static\root\favicon.png"
       inkscape:export-xdpi="18"
       inkscape:export-ydpi="18" />
    <path
       style="fill:#e77c00;fill-opacity:1;stroke:#894900;stroke-width:0.20000000000000001;stroke-linecap:round;stroke-linejoin:round;stroke-miterlimit:4;stroke-opacity:1;stroke-dasharray:none;stroke-dashoffset:0"
       d="m 216.30474,463.66692 c -1.80663,1.80661 -2.91683,4.30964 -2.91683,7.07106 1e-5,2.76143 1.12928,5.28353 2.93892,7.09316 l 1.41421,1.41422 c 1.80964,1.80964 4.30965,2.91681 7.07108,2.91682 5.52284,0 9.98788,-4.46504 9.98788,-9.98788 -1e-5,-2.76143 -1.10718,-5.26144 -2.91682,-7.07108 l -1.41422,-1.41421 c -1.80963,-1.80964 -4.33173,-2.93891 -7.09316,-2.93892 -2.76142,0 -5.26445,1.1102 -7.07106,2.91683 z"
       id="path4027-2-4-6"
       inkscape:connector-curvature="0"
       inkscape:export-filename="C:\Users\Philip\Dropbox\LEGO\pynxt\Cherry\static\root\favicon.png"
       inkscape:export-xdpi="18"
       inkscape:export-ydpi="18" />
    <path
       sodipodi:type="arc"
       style="fill:#ff961b;fill-opacity:1;stroke:#894900;stroke-width:0.2;stroke-linecap:round;stroke-linejoin:round;stroke-miterlimit:4;stroke-opacity:1;stroke-dasharray:none;stroke-dashoffset:0"
       id="path4034-6-9-0"
       sodipodi:cx="365"
       sodipodi:cy="442.36218"
       sodipodi:rx="10"
       sodipodi:ry="10"
       d="m 375,442.36218 a 10,10 0 1 1 -20,0 10,10 0 1 1 20,0 z"
       transform="translate(-141.6242,28.38791)"
       inkscape:export-filename="C:\Users\Philip\Dropbox\LEGO\pynxt\Cherry\static\root\favicon.png"
       inkscape:export-xdpi="18"
       inkscape:export-ydpi="18" />
  </g>
</svg>
